<svg id="Layer_1" data-name="Layer 1" xmlns="http://www.w3.org/2000/svg" xmlns:xlink="http://www.w3.org/1999/xlink" viewBox="0 0 623.8 429.89"><defs><style>.cls-1{fill:none;}.cls-2{fill:#575756;}.cls-3{clip-path:url(#clip-path);}.cls-4{fill:#3c3c3b;}.cls-5{clip-path:url(#clip-path-2);}.cls-6{fill:#f2cf4c;}</style><clipPath id="clip-path"><path id="_Compound_Clipping_Path_" data-name="&lt;Compound Clipping Path&gt;" class="cls-1" d="M52,416.31H0L128.31,0h54.93l129,416.31H255.1l-28.42-91.47H80.3Zm41.08-133H214.58l-50.19-158L152.75,83l-10.54,42.28Z"/></clipPath><clipPath id="clip-path-2"><path class="cls-1" d="M362.93,416.31V0h54.18V416.31H362.93Z"/></clipPath></defs><title>Final AK logo</title><path id="_Compound_Path_" data-name="&lt;Compound Path&gt;" class="cls-2" d="M52,416.31H0L128.31,0h54.93l129,416.31H255.1l-28.42-91.47H80.3Zm41.08-133H214.58l-50.19-158L152.75,83l-10.54,42.28Z"/><path class="cls-2" d="M362.93,416.31V0h54.18V416.31H362.93Z"/><g class="cls-3"><polygon class="cls-4" points="194.03 0 62.82 416.31 10.78 416.31 139.09 0 194.03 0"/></g><g class="cls-5"><polygon class="cls-4" points="541.74 13.58 387.26 217.57 552.39 429.89 620.23 429.89 450.06 211.21 599.3 13.58 541.74 13.58"/></g><polygon class="cls-6" points="183.25 0 52.04 416.31 0 416.31 128.31 0 183.25 0"/><polygon class="cls-6" points="545.31 0 390.83 204 555.96 416.31 623.8 416.31 453.64 197.63 602.88 0 545.31 0"/></svg>